<mxfile host="app.diagrams.net" modified="2023-11-10T02:58:43.205Z" agent="Mozilla/5.0 (Macintosh; Intel Mac OS X 10_15_7) AppleWebKit/537.36 (KHTML, like Gecko) Chrome/119.0.0.0 Safari/537.36" version="21.2.3" etag="3Ate06NF3OD1T6H9eARs" type="github">
  <diagram name="Page-1" id="ObjUCaE0IQ_VIrnB7TbO">
    <mxGraphModel>
      <root>
        <mxCell id="0" />
        <mxCell id="1" parent="0" />
      </root>
    </mxGraphModel>
  </diagram>
</mxfile>
